<svg xmlns="http://www.w3.org/2000/svg" xmlns:xlink="http://www.w3.org/1999/xlink" width="200" zoomAndPan="magnify" viewBox="0 0 150 149.999998" height="200" preserveAspectRatio="xMidYMid meet" version="1.0"><defs><clipPath id="892906a649"><path d="M 114 4.484375 L 138.035156 4.484375 L 138.035156 65 L 114 65 Z M 114 4.484375 " clip-rule="nonzero"/></clipPath><clipPath id="dd1a29e637"><path d="M 41.285156 41 L 138.035156 41 L 138.035156 137.984375 L 41.285156 137.984375 Z M 41.285156 41 " clip-rule="nonzero"/></clipPath><clipPath id="3c05d4e262"><path d="M 75 7.746094 L 77.796875 7.746094 L 77.796875 10.542969 L 75 10.542969 Z M 75 7.746094 " clip-rule="nonzero"/></clipPath><clipPath id="cc3f8af18d"><path d="M 76.398438 7.746094 C 75.625 7.746094 75 8.371094 75 9.144531 C 75 9.914062 75.625 10.542969 76.398438 10.542969 C 77.171875 10.542969 77.796875 9.914062 77.796875 9.144531 C 77.796875 8.371094 77.171875 7.746094 76.398438 7.746094 Z M 76.398438 7.746094 " clip-rule="nonzero"/></clipPath></defs><rect x="-15" width="180" fill="#ffffff" y="-15" height="179.999997" fill-opacity="1"/><rect x="-15" width="180" fill="#25292f" y="-15" height="179.999997" fill-opacity="1"/><path fill="#25292f" d="M 78.003906 22.429688 L 101.601562 22.429688 L 101.601562 64.289062 L 78.003906 64.289062 Z M 78.003906 22.429688 " fill-opacity="1" fill-rule="nonzero"/><g clip-path="url(#892906a649)"><path fill="#25292f" d="M 114.664062 4.484375 L 138.261719 4.484375 L 138.261719 64.289062 L 114.664062 64.289062 Z M 114.664062 4.484375 " fill-opacity="1" fill-rule="nonzero"/></g><g clip-path="url(#dd1a29e637)"><path fill="#00e0ff" d="M 98 101.214844 L 78.003906 101.214844 L 78.003906 77.644531 L 138.261719 77.644531 L 138.261719 137.796875 L 114.664062 137.796875 L 114.664062 117.800781 L 94.695312 137.796875 L 41.34375 137.796875 L 41.34375 41.144531 L 64.941406 41.144531 L 64.941406 114.308594 L 84.964844 114.308594 Z M 98 101.214844 " fill-opacity="1" fill-rule="nonzero"/></g><g clip-path="url(#3c05d4e262)"><g clip-path="url(#cc3f8af18d)"><path fill="#25292f" d="M 75 7.746094 L 77.796875 7.746094 L 77.796875 10.542969 L 75 10.542969 Z M 75 7.746094 " fill-opacity="1" fill-rule="nonzero"/></g></g></svg>