<svg xmlns="http://www.w3.org/2000/svg" xmlns:xlink="http://www.w3.org/1999/xlink" width="200" zoomAndPan="magnify" viewBox="0 0 150 149.999998" height="200" preserveAspectRatio="xMidYMid meet" version="1.0"><defs><clipPath id="34673e49f8"><path d="M 2.835938 24.5625 L 21.269531 24.5625 L 21.269531 42.996094 L 2.835938 42.996094 Z M 2.835938 24.5625 " clip-rule="nonzero"/></clipPath><clipPath id="641a3d8ece"><path d="M 12.050781 24.5625 C 6.960938 24.5625 2.835938 28.6875 2.835938 33.777344 C 2.835938 38.867188 6.960938 42.996094 12.050781 42.996094 C 17.144531 42.996094 21.269531 38.867188 21.269531 33.777344 C 21.269531 28.6875 17.144531 24.5625 12.050781 24.5625 Z M 12.050781 24.5625 " clip-rule="nonzero"/></clipPath><clipPath id="249578ea22"><path d="M 75 24 L 145.929688 24 L 145.929688 94 L 75 94 Z M 75 24 " clip-rule="nonzero"/></clipPath><clipPath id="3137f8f09e"><path d="M 4.179688 21.425781 L 145.929688 21.425781 L 145.929688 134.675781 L 4.179688 134.675781 Z M 4.179688 21.425781 " clip-rule="nonzero"/></clipPath></defs><rect x="-15" width="180" fill="#ffffff" y="-15" height="179.999997" fill-opacity="1"/><rect x="-15" width="180" fill="#25292f" y="-15" height="179.999997" fill-opacity="1"/><g clip-path="url(#34673e49f8)"><g clip-path="url(#641a3d8ece)"><path fill="#25292f" d="M 2.835938 24.5625 L 21.269531 24.5625 L 21.269531 42.996094 L 2.835938 42.996094 Z M 2.835938 24.5625 " fill-opacity="1" fill-rule="nonzero"/></g></g><g clip-path="url(#249578ea22)"><path fill="#f0abc1" d="M 135.332031 57.039062 C 131.507812 54.835938 129.242188 50.914062 129.242188 46.511719 C 129.242188 42.109375 131.539062 38.183594 135.332031 35.984375 L 143.320312 31.382812 C 143.660156 31.183594 143.945312 30.960938 144.171875 30.703125 C 143.519531 28.417969 142.105469 26.132812 140.320312 24.582031 C 140.0625 24.664062 139.808594 24.777344 139.554688 24.917969 L 131.566406 29.519531 C 125.390625 33.074219 121.707031 39.425781 121.707031 46.511719 C 121.707031 53.59375 125.390625 59.945312 131.566406 63.503906 C 135.390625 65.703125 137.65625 69.628906 137.65625 74.03125 C 137.65625 78.433594 135.363281 82.355469 131.566406 84.558594 C 127.796875 86.730469 123.125 86.730469 119.355469 84.558594 C 106.042969 76.910156 90.039062 75.667969 75.847656 80.804688 L 78.765625 85.742188 L 78.765625 87.691406 C 90.804688 83.429688 104.34375 84.53125 115.589844 91.023438 C 121.652344 94.523438 129.214844 94.523438 135.277344 91.023438 C 141.453125 87.464844 145.136719 81.113281 145.136719 74.03125 C 145.191406 66.917969 141.507812 60.566406 135.332031 57.039062 Z M 135.332031 57.039062 " fill-opacity="1" fill-rule="nonzero"/></g><path fill="#f7b4a7" d="M 71.992188 74.371094 L 41.058594 56.585938 L 20.777344 68.246094 L 51.710938 86.054688 L 58.398438 97.65625 L 58.398438 129.972656 L 78.820312 118.230469 L 78.820312 85.914062 Z M 71.992188 74.371094 " fill-opacity="1" fill-rule="nonzero"/><path fill="#94ddde" d="M 51.683594 86.054688 L 20.75 68.273438 L 14.09375 72.027344 L 14.09375 95.285156 L 26.273438 88.285156 L 28.371094 89.160156 L 28.371094 103.160156 L 17.066406 109.652344 L 20.777344 116.03125 L 21.65625 116.539062 L 21.65625 115.886719 C 21.65625 113.121094 23.300781 109.988281 25.421875 108.777344 L 43.722656 98.246094 L 45.820312 99.121094 L 45.820312 113.121094 L 30.75 121.789062 L 51.710938 133.839844 L 58.367188 130.058594 L 58.367188 97.484375 Z M 51.683594 86.054688 " fill-opacity="1" fill-rule="nonzero"/><path fill="#fefefe" d="M 27.71875 102.820312 L 10.355469 112.8125 C 8.457031 113.914062 6.898438 112.753906 6.898438 110.214844 L 6.898438 106.828125 C 6.898438 104.289062 8.457031 101.351562 10.355469 100.25 L 27.71875 90.261719 Z M 45.140625 100.195312 L 27.773438 110.1875 C 25.875 111.289062 24.320312 114.222656 24.320312 116.761719 L 24.320312 120.148438 C 24.320312 122.691406 25.875 123.847656 27.773438 122.746094 L 45.140625 112.753906 Z M 45.140625 100.195312 " fill-opacity="1" fill-rule="nonzero"/><g clip-path="url(#3137f8f09e)"><path fill="#143c3c" d="M 135.644531 56.472656 C 132.019531 54.386719 129.867188 50.660156 129.867188 46.484375 C 129.867188 42.304688 132.019531 38.578125 135.644531 36.492188 L 136.324219 36.097656 C 136.921875 36.660156 137.570312 37.167969 138.25 37.535156 C 139.328125 38.15625 140.40625 38.46875 141.425781 38.46875 C 144.03125 38.46875 145.785156 36.378906 145.785156 33.246094 C 145.785156 29.210938 143.039062 24.46875 139.496094 22.433594 C 138.449219 21.84375 137.375 21.53125 136.355469 21.53125 C 133.746094 21.53125 131.992188 23.621094 131.992188 26.753906 C 131.992188 27.316406 132.046875 27.882812 132.160156 28.445312 L 131.28125 28.957031 C 124.910156 32.625 121.113281 39.171875 121.113281 46.484375 C 121.113281 53.792969 124.910156 60.339844 131.28125 64.011719 C 134.910156 66.097656 137.0625 69.824219 137.0625 74.003906 C 137.0625 78.179688 134.910156 81.90625 131.28125 83.992188 C 127.714844 86.054688 123.265625 86.054688 119.695312 83.992188 C 106.355469 76.316406 90.351562 75.019531 76.074219 80.042969 L 72.445312 73.917969 L 41.058594 55.855469 L 13.46875 71.660156 L 13.46875 95.652344 L 7.945312 98.8125 C 5.820312 100.054688 4.179688 103.1875 4.179688 105.953125 L 4.179688 109.339844 C 4.179688 110.890625 4.714844 112.105469 5.679688 112.671875 C 5.765625 112.726562 5.847656 112.753906 5.960938 112.8125 L 7.945312 113.601562 C 8.03125 113.660156 8.117188 113.6875 8.230469 113.714844 L 8.285156 113.742188 C 8.511719 113.800781 8.738281 113.855469 8.992188 113.855469 C 9.53125 113.855469 10.097656 113.6875 10.695312 113.347656 L 17.152344 109.652344 L 16.527344 109.988281 L 20.324219 116.507812 L 21.65625 117.269531 L 21.65625 119.304688 C 21.65625 120.855469 22.195312 122.070312 23.15625 122.632812 C 23.242188 122.691406 23.328125 122.71875 23.441406 122.773438 L 25.421875 123.566406 C 25.507812 123.621094 25.59375 123.648438 25.707031 123.679688 L 25.761719 123.707031 C 25.992188 123.761719 26.21875 123.820312 26.472656 123.820312 C 27.011719 123.820312 27.578125 123.648438 28.171875 123.3125 L 30.183594 122.152344 L 51.769531 134.574219 L 79.558594 118.625 L 79.558594 88.144531 C 91.3125 84.105469 104.484375 85.234375 115.449219 91.558594 C 121.707031 95.171875 129.5 95.171875 135.757812 91.558594 C 142.132812 87.890625 145.929688 81.339844 145.929688 74.03125 C 145.816406 66.691406 142.019531 60.144531 135.644531 56.472656 Z M 41.058594 57.292969 L 70.746094 74.371094 L 51.710938 85.320312 L 22.023438 68.246094 Z M 10.042969 112.277344 C 9.589844 112.53125 8.9375 112.785156 8.398438 112.445312 C 7.832031 112.132812 7.519531 111.289062 7.519531 110.1875 L 7.519531 106.800781 C 7.519531 104.511719 8.964844 101.746094 10.664062 100.757812 L 27.09375 91.304688 L 27.09375 102.453125 Z M 27.464844 122.210938 C 27.011719 122.464844 26.359375 122.71875 25.820312 122.378906 C 25.253906 122.070312 24.941406 121.222656 24.941406 120.121094 L 24.941406 116.734375 C 24.941406 114.449219 26.386719 111.683594 28.085938 110.695312 L 44.515625 101.238281 L 44.515625 112.386719 Z M 57.6875 129.691406 L 51.65625 133.105469 L 31.316406 121.421875 L 45.761719 113.121094 L 45.761719 99.121094 L 43.667969 98.246094 L 25.367188 108.777344 C 23.242188 109.988281 21.597656 113.121094 21.597656 115.886719 C 21.597656 115.859375 21.597656 115.832031 21.597656 115.804688 L 21.175781 115.578125 L 17.546875 109.367188 L 28.3125 103.1875 L 28.3125 89.1875 L 26.21875 88.3125 L 14.007812 95.339844 L 14.6875 94.945312 L 14.6875 72.394531 L 20.722656 68.976562 L 51.203125 86.507812 L 55.28125 93.535156 L 57.6875 97.710938 Z M 56.355469 92.855469 L 52.5625 86.28125 L 64.542969 79.394531 L 71.765625 75.246094 L 77.972656 85.714844 L 58.652344 96.835938 Z M 78.199219 117.863281 L 59.019531 128.898438 L 59.019531 98.023438 L 78.199219 86.984375 Z M 135.023438 90.484375 C 129.128906 93.871094 121.851562 93.871094 115.957031 90.484375 C 104.796875 84.050781 91.425781 82.863281 79.445312 86.84375 L 79.445312 85.773438 L 76.722656 81.199219 C 82.164062 79.308594 87.886719 78.347656 93.578125 78.347656 C 102.390625 78.347656 111.199219 80.605469 119.046875 85.121094 C 123.011719 87.410156 127.910156 87.410156 131.878906 85.121094 C 135.898438 82.808594 138.28125 78.6875 138.28125 74.058594 C 138.28125 69.429688 135.871094 65.308594 131.878906 62.996094 C 125.902344 59.550781 122.332031 53.398438 122.332031 46.539062 C 122.332031 39.679688 125.902344 33.527344 131.878906 30.085938 L 139.867188 25.484375 C 140.179688 25.3125 140.519531 25.199219 140.859375 25.117188 C 142.1875 26.441406 143.292969 28.191406 143.917969 30 C 143.632812 30.367188 134.992188 35.417969 134.992188 35.417969 C 130.972656 37.734375 128.59375 41.855469 128.59375 46.484375 C 128.59375 51.113281 131 55.234375 134.992188 57.546875 C 140.972656 60.992188 144.539062 67.144531 144.539062 74.003906 C 144.570312 80.890625 141 87.042969 135.023438 90.484375 Z M 16.445312 103.019531 C 16.445312 104.9375 15.085938 107.28125 13.382812 108.265625 C 11.683594 109.226562 10.324219 108.464844 10.324219 106.546875 C 10.324219 104.625 11.683594 102.285156 13.382812 101.296875 C 15.054688 100.308594 16.445312 101.097656 16.445312 103.019531 Z M 33.867188 112.953125 C 33.867188 114.871094 32.503906 117.214844 30.804688 118.203125 C 29.105469 119.164062 27.746094 118.398438 27.746094 116.480469 C 27.746094 114.5625 29.105469 112.21875 30.804688 111.230469 C 32.503906 110.269531 33.867188 111.035156 33.867188 112.953125 Z M 33.867188 112.953125 " fill-opacity="1" fill-rule="nonzero"/></g><path fill="#143c3c" d="M 46.101562 82.808594 L 60.945312 68.019531 L 61.117188 68.101562 L 53.609375 75.582031 L 46.273438 82.894531 Z M 48.480469 84.191406 L 48.652344 84.277344 L 53.609375 79.335938 L 63.496094 69.484375 L 63.324219 69.402344 L 60.972656 71.746094 Z M 50.863281 85.546875 L 51.03125 85.632812 L 53.609375 83.0625 L 59.472656 77.21875 L 61.117188 75.582031 L 65.875 70.839844 L 65.707031 70.757812 L 60.972656 75.46875 Z M 52.589844 87.550781 L 52.675781 87.71875 L 53.609375 86.789062 L 59.585938 80.832031 L 61.085938 79.335938 L 68.226562 72.222656 L 68.054688 72.140625 L 60.945312 79.222656 Z M 53.949219 89.921875 L 54.035156 90.089844 L 70.605469 73.578125 L 70.4375 73.496094 L 60.945312 82.949219 Z M 55.308594 92.292969 L 55.394531 92.460938 L 72.558594 75.355469 L 72.476562 75.1875 L 60.972656 86.648438 Z M 56.667969 94.664062 L 56.753906 94.832031 L 73.949219 77.699219 L 73.863281 77.53125 L 60.972656 90.402344 Z M 58.058594 97.035156 L 58.140625 97.203125 L 75.363281 80.042969 L 75.28125 79.875 L 61.003906 94.097656 Z M 41.371094 80.097656 L 41.542969 80.183594 L 53.609375 68.160156 L 56.386719 65.394531 L 56.214844 65.308594 Z M 26.726562 64.828125 L 22.363281 69.175781 L 22.535156 69.261719 L 27.351562 64.460938 Z M 35.59375 59.75 L 31.03125 64.292969 L 24.773438 70.53125 L 24.941406 70.617188 L 36.246094 59.351562 Z M 41.96875 57.09375 L 34.773438 64.292969 L 27.125 71.914062 L 27.292969 72 L 42.136719 57.207031 Z M 44.347656 58.476562 L 38.511719 64.292969 L 29.503906 73.269531 L 29.671875 73.351562 L 44.515625 58.5625 Z M 46.726562 59.832031 L 42.25 64.292969 L 31.882812 74.625 L 32.050781 74.707031 L 46.894531 59.917969 Z M 49.105469 61.214844 L 46.019531 64.292969 L 34.261719 76.007812 L 34.433594 76.089844 L 49.273438 61.300781 Z M 51.457031 62.570312 L 49.730469 64.292969 L 36.613281 77.359375 L 36.78125 77.445312 L 51.625 62.65625 Z M 58.398438 104.429688 L 61.117188 101.71875 L 78.140625 84.757812 L 78.054688 84.585938 L 58.425781 104.148438 L 58.425781 104.429688 Z M 58.398438 108.15625 L 64.855469 101.71875 L 78.820312 87.804688 L 78.820312 87.550781 L 58.398438 107.902344 Z M 60.972656 109.058594 L 58.398438 111.625 L 58.398438 111.878906 L 68.59375 101.71875 L 78.820312 91.53125 L 78.820312 91.277344 Z M 64.714844 109.058594 L 60.972656 112.785156 L 58.398438 115.351562 L 58.398438 115.605469 L 72.332031 101.71875 L 78.820312 95.253906 L 78.820312 95 Z M 68.453125 109.058594 L 60.972656 116.507812 L 58.398438 119.078125 L 58.398438 119.332031 L 76.074219 101.71875 L 78.820312 98.980469 L 78.820312 98.726562 Z M 72.191406 109.058594 L 60.945312 120.261719 L 58.367188 122.832031 L 58.367188 123.085938 L 78.792969 102.734375 L 78.792969 102.480469 Z M 75.960938 109.058594 L 60.972656 123.988281 L 58.398438 126.558594 L 58.398438 126.8125 L 78.820312 106.460938 L 78.820312 106.207031 Z M 59.078125 129.605469 L 59.699219 129.238281 L 78.820312 110.1875 L 78.820312 109.933594 L 60.972656 127.714844 Z M 68.566406 124.128906 L 78.820312 113.914062 L 78.820312 113.660156 L 67.914062 124.523438 Z M 77.40625 119.050781 L 78.820312 117.636719 L 78.820312 117.382812 L 76.78125 119.417969 Z M 53.835938 63.925781 L 53.46875 64.292969 L 38.992188 78.714844 L 39.164062 78.800781 L 54.007812 64.011719 Z M 43.921875 81.539062 L 53.636719 71.855469 L 58.765625 66.75 L 58.59375 66.664062 L 43.75 81.453125 Z M 58.398438 100.421875 L 58.398438 100.675781 L 76.753906 82.386719 L 76.667969 82.214844 L 61.003906 97.824219 Z M 58.398438 100.421875 " fill-opacity="1" fill-rule="nonzero"/></svg>